<!-- Generated by IcoMoon.io -->
<svg version="1.1" xmlns="http://www.w3.org/2000/svg" width="3804" height="1024" viewBox="0 0 3804 1024">
<title></title>
<g id="icomoon-ignore">
</g>
<path fill="#b0b0b0" d="M555.096 846.666v177.334c75.058-9.073 142.692-66.81 192.593-155.064-57.435-13.088-123.76-21.143-191.771-22.259l-0.822-0.011z"></path>
<path fill="#b0b0b0" d="M513.443 1024v-177.334c-68.819 1.1-135.146 9.156-199.098 23.495l6.505-1.226c49.489 88.255 117.123 145.991 192.593 155.064z"></path>
<path fill="#b0b0b0" d="M513.443 180.221v-180.221c-11.135 0-22.27 0-32.992 2.062-73.3 29.273-131.276 83.906-164.17 152.81l-0.792 1.842c59.129 14.026 127.293 22.54 197.283 23.5l0.671 0.007z"></path>
<path fill="#b0b0b0" d="M513.443 803.364v-270.95h-277.136c1.705 107.818 25.525 209.646 67.101 301.736l-1.941-4.805c63.283-15.43 136.239-24.837 211.201-25.972l0.775-0.009z"></path>
<path fill="#b0b0b0" d="M751.401 156.714c-33.546-70.845-91.572-125.527-162.912-153.932l-2.050-0.72c-11.135 0-22.27 0-32.992-2.062v180.221c70.659-0.964 138.824-9.478 204.383-24.771l-6.429 1.264z"></path>
<path fill="#b0b0b0" d="M236.308 492.823h277.136v-270.95c-76.913-1.111-150.982-10.971-221.97-28.628l6.695 1.409c-38.435 87.914-61.117 190.295-61.859 297.889l-0.002 0.279z"></path>
<path fill="#b0b0b0" d="M276.723 146.404c23.892-46.588 53.496-86.46 88.58-120.75l0.087-0.084c-66.127 21.306-123.453 52.657-173.435 92.781l1.050-0.815c21.986 9.466 49.807 19.305 78.311 27.532l5.407 1.336z"></path>
<path fill="#b0b0b0" d="M702.737 25.569c35.452 34.289 65.207 74.181 87.897 118.303l1.183 2.531c33.434-9.603 60.829-19.434 87.445-30.742l-4.964 1.874c-48.687-39.28-105.734-70.623-167.787-90.899l-3.774-1.067z"></path>
<path fill="#b0b0b0" d="M788.105 879.246c-26.127 48.921-59.052 90.53-98.124 125.397l-0.441 0.387c71.031-21.161 132.751-53.92 186.28-96.531l-1.11 0.853c-23.245-10.227-52.028-20.491-81.596-28.889l-5.009-1.216z"></path>
<path fill="#b0b0b0" d="M194.655 492.823c0.991-111.614 24.404-217.501 65.941-313.732l-2.018 5.253c-39.249-11.61-72.213-24.229-103.957-39.028l4.568 1.912c-93.155 87.132-153.049 208.821-159.149 344.514l-0.039 1.081z"></path>
<path fill="#b0b0b0" d="M159.188 879.658c28.214-13.448 62.154-26.361 97.211-36.665l5.065-1.276c-40.341-90.529-64.721-195.978-66.798-306.882l-0.011-0.772h-194.655c6.373 136.726 66.208 258.343 158.917 345.343l0.271 0.252z"></path>
<path fill="#b0b0b0" d="M280.435 879.246c-34.763 9.623-63.686 19.889-91.693 31.886l4.675-1.781c52.518 41.839 114.389 74.611 181.732 94.692l3.85 0.985c-39.765-35.061-72.734-76.717-97.427-123.422l-1.138-2.361z"></path>
<path fill="#b0b0b0" d="M1143.597 597.161c-0.408-4.646-0.641-10.052-0.641-15.512 0-52.744 21.714-100.417 56.691-134.567l0.037-0.036c29.486-25.656 68.279-41.296 110.724-41.296 1.525 0 3.045 0.020 4.561 0.060l-0.224-0.005c1.851-0.074 4.023-0.117 6.206-0.117 45.987 0 87.579 18.818 117.496 49.173l0.020 0.020c29.872 33.212 48.142 77.379 48.142 125.813 0 3.761-0.11 7.497-0.328 11.204l0.024-0.512c0.177 3.452 0.278 7.496 0.278 11.563 0 35.86-7.851 69.887-21.927 100.455l0.617-1.493c-14.083 26.824-35.27 48.276-61.079 62.297l-0.781 0.388c-24.735 14.272-54.402 22.692-86.035 22.692-0.635 0-1.27-0.003-1.904-0.010l0.097 0.001c-1.734 0.065-3.77 0.103-5.815 0.103-46.183 0-87.934-18.979-117.878-49.562l-0.028-0.029c-30.174-34.287-48.589-79.56-48.589-129.134 0-4.044 0.123-8.060 0.364-12.044l-0.027 0.547zM1207.108 597.161c-0.264 3.415-0.414 7.397-0.414 11.413 0 35.305 11.613 67.897 31.228 94.165l-0.296-0.414c18.118 21.267 44.923 34.668 74.857 34.668 0.796 0 1.589-0.009 2.38-0.028l-0.118 0.002c0.556 0.012 1.212 0.018 1.87 0.018 29.884 0 56.595-13.584 74.297-34.913l0.128-0.159c19.622-25.934 31.431-58.73 31.431-94.283 0-4.41-0.182-8.778-0.538-13.096l0.038 0.566c0.233-3.149 0.366-6.821 0.366-10.525 0-34.841-11.772-66.932-31.556-92.513l0.259 0.349c-18.832-21.28-46.211-34.627-76.707-34.627s-57.875 13.347-76.613 34.519l-0.094 0.108c-19.322 25.67-30.945 58.088-30.945 93.222 0 4.057 0.155 8.078 0.459 12.057l-0.032-0.529z"></path>
<path fill="#b0b0b0" d="M1548.166 781.506v-503.958h61.861v503.958z"></path>
<path fill="#b0b0b0" d="M1933.352 781.506v-46.189c-20.142 32.92-55.9 54.555-96.711 54.555-1.812 0-3.615-0.043-5.406-0.127l0.253 0.010c-0.176 0.001-0.384 0.001-0.593 0.001-29.774 0-57.424-9.093-80.326-24.653l0.499 0.32c-24.693-16.619-44.055-39.426-56.101-66.231l-0.398-0.991c-12.801-27.526-20.269-59.752-20.269-93.723 0-1.847 0.022-3.69 0.066-5.527l-0.005 0.272c-0.013-0.98-0.021-2.137-0.021-3.296 0-34.444 6.671-67.329 18.79-97.435l-0.624 1.754c21.034-54.237 72.798-91.992 133.381-91.992 0.954 0 1.905 0.009 2.855 0.028l-0.142-0.002c0.748-0.016 1.629-0.026 2.512-0.026 20.615 0 40.052 5.042 57.146 13.96l-0.684-0.325c16.503 9.208 30.264 21.389 40.995 35.942l0.246 0.349v-180.633h61.861v503.958zM1737.872 599.224c-0.288 3.574-0.452 7.737-0.452 11.938 0 34.881 11.307 67.121 30.455 93.256l-0.31-0.443c16.285 20.95 41.396 34.374 69.653 34.642h0.044c0.077 0 0.167 0 0.258 0 27.686 0 52.38-12.808 68.481-32.823l0.132-0.17c18.072-24.853 28.911-55.98 28.911-89.638 0-4.158-0.165-8.277-0.49-12.351l0.034 0.538c0.38-4.254 0.596-9.202 0.596-14.2 0-35.669-11.018-68.764-29.835-96.069l0.371 0.57c-16.36-21.395-41.897-35.057-70.625-35.057-0.254 0-0.507 0.001-0.76 0.003h0.039c-0.158-0.001-0.345-0.002-0.532-0.002-27.689 0-52.344 12.994-68.197 33.218l-0.143 0.189c-17.621 26.309-28.123 58.679-28.123 93.502 0 4.539 0.178 9.037 0.529 13.487l-0.037-0.588z"></path>
<path fill="#b0b0b0" d="M2326.373 663.971l63.923 7.836c-8.563 35.521-28.355 65.505-55.342 86.765l-0.333 0.253c-27.256 19.431-61.239 31.067-97.939 31.067-2.396 0-4.78-0.050-7.151-0.148l0.339 0.011c-2.435 0.127-5.286 0.199-8.154 0.199-46.503 0-88.567-19.004-118.849-49.67l-0.017-0.017c-29.199-33.47-47.002-77.54-47.002-125.769 0-4.358 0.145-8.682 0.432-12.968l-0.031 0.581c-0.262-3.843-0.411-8.329-0.411-12.849 0-49.81 18.095-95.394 48.071-130.536l-0.234 0.281c29.288-31.336 70.868-50.867 117.009-50.867 2.361 0 4.709 0.051 7.045 0.152l-0.333-0.011c1.558-0.056 3.389-0.087 5.227-0.087 45.074 0 85.703 19.029 114.292 49.492l0.078 0.084c28.972 34.256 46.584 78.929 46.584 127.715 0 4.399-0.143 8.764-0.425 13.091l0.031-0.589v16.496h-272.187c-0.003 0.312-0.004 0.681-0.004 1.051 0 34.97 12.802 66.95 33.974 91.51l-0.153-0.182c18.603 19.593 44.84 31.783 73.925 31.783 0.833 0 1.664-0.010 2.493-0.030l-0.123 0.002c1.244 0.059 2.702 0.092 4.167 0.092 20.737 0 39.912-6.683 55.49-18.013l-0.271 0.188c16.913-14.737 29.454-34.089 35.681-56.092l0.198-0.819zM2123.47 563.757h203.728c-0.814-25.966-9.506-49.752-23.75-69.22l0.243 0.349c-17.294-21.95-43.876-35.915-73.719-35.915-0.906 0-1.809 0.013-2.708 0.038l0.132-0.003c-0.729-0.019-1.587-0.030-2.447-0.030-27.027 0-51.513 10.878-69.32 28.495l0.009-0.009c-18.547 19.975-29.97 46.788-30.105 76.268v0.027z"></path>
<path fill="#b0b0b0" d="M2457.518 781.506v-364.978h55.675v51.551c23.726-36.285 64.163-59.925 110.121-59.925 2.027 0 4.044 0.046 6.049 0.137l-0.284-0.010c0.701-0.011 1.527-0.018 2.355-0.018 21.162 0 41.331 4.25 59.701 11.944l-1.020-0.379c16.676 6.896 30.577 17.618 41.073 31.119l0.168 0.224c9.137 13.006 15.893 28.387 19.252 44.999l0.131 0.778c2.169 15.234 3.408 32.829 3.408 50.713 0 3.195-0.040 6.38-0.118 9.556l0.009-0.47v224.76h-61.861v-222.286c0.111-2.245 0.175-4.875 0.175-7.52 0-17.496-2.779-34.343-7.92-50.123l0.322 1.143c-4.924-12.76-13.883-23.053-25.286-29.545l-0.283-0.148c-11.645-6.998-25.698-11.137-40.718-11.137-0.184 0-0.367 0.001-0.55 0.002h0.028c-0.562-0.011-1.225-0.018-1.889-0.018-25.508 0-48.826 9.376-66.696 24.869l0.127-0.108c-18.275 21.429-29.394 49.445-29.394 80.058 0 5.36 0.341 10.641 1.002 15.822l-0.064-0.615v199.604z"></path>
<path fill="#b0b0b0" d="M2835.28 781.506v-503.958h61.861v503.958z"></path>
<path fill="#b0b0b0" d="M2979.621 781.506v-359.204h61.861v359.204z"></path>
<path fill="#b0b0b0" d="M3123.551 781.506v-364.978h55.675v51.551c23.724-36.295 64.167-59.944 110.133-59.944 2.168 0 4.324 0.053 6.467 0.157l-0.302-0.012c0.605-0.009 1.32-0.013 2.035-0.013 21.13 0 41.268 4.249 59.605 11.939l-1.017-0.378c16.676 6.896 30.577 17.618 41.073 31.119l0.168 0.224c9.137 13.006 15.893 28.387 19.252 44.999l0.131 0.778c2.169 15.234 3.408 32.829 3.408 50.713 0 3.195-0.040 6.38-0.118 9.556l0.009-0.47v224.76h-61.861v-222.286c0.091-2.105 0.143-4.574 0.143-7.056 0-17.626-2.614-34.641-7.476-50.679l0.322 1.236c-5.215-12.596-14.091-22.802-25.292-29.538l-0.277-0.155c-11.824-6.975-26.047-11.107-41.232-11.135h-0.008c-0.622-0.014-1.354-0.022-2.089-0.022-25.312 0-48.433 9.384-66.072 24.864l0.114-0.098c-18.494 21.494-29.755 49.673-29.755 80.481 0 5.21 0.322 10.346 0.947 15.387l-0.061-0.603v199.604z"></path>
<path fill="#b0b0b0" d="M3501.725 781.506v-503.958h61.861v288.683l146.404-148.466h80.419l-138.98 134.031 153.827 229.709h-76.295l-120.834-186.819-43.715 41.24v144.754z"></path>
<path fill="#b0b0b0" d="M3056.329 323.737c0 26.876-21.787 48.664-48.664 48.664s-48.664-21.787-48.664-48.664c0-26.876 21.787-48.664 48.664-48.664s48.664 21.787 48.664 48.664z"></path>
<path fill="#b0b0b0" d="M905.64 504.783c-16.171 0-29.281 13.109-29.281 29.281s13.109 29.281 29.281 29.281h137.331c-16.929 95.691-99.456 167.438-198.74 167.438-0.304 0-0.607-0.001-0.911-0.002h-9.851v-404.569h9.898c68.176 0.579 128.246 34.761 164.527 86.771l0.435 0.659c5.368 7.68 14.167 12.641 24.126 12.641 16.206 0 29.343-13.137 29.343-29.343 0-6.247-1.952-12.039-5.28-16.797l0.063 0.095c-47.878-68.769-126.543-113.212-215.588-113.212-144.631 0-261.877 117.246-261.877 261.877s117.246 261.877 261.877 261.877c142.090 0 257.75-113.164 261.769-254.282l0.008-0.371v-30.106z"></path>
<path fill="#b0b0b0" d="M847.079 219.812c57.795 1.072 111.467 17.81 157.216 46.129l-1.327-0.765c-26.256-45.112-57.038-83.904-92.576-117.745l-0.215-0.203c-26.931 12.657-59.887 25.27-93.818 35.65l-5.572 1.466c4.949 11.547 9.485 23.919 13.609 36.292z"></path>
<path fill="#b0b0b0" d="M782.331 225.998c-4.124-10.31-7.836-21.033-11.96-30.93-64.274 16.191-138.338 26.048-214.511 27.21l-0.764 0.009v198.779c37.055-99.459 121.568-173.321 225.256-194.726l1.979-0.341z"></path>
<path fill="#b0b0b0" d="M555.096 634.69v168.673c75.749 1.172 148.702 10.577 218.789 27.358l-6.813-1.377v-4.949c-98.336-25.416-176.187-95.932-211.27-187.606l-0.706-2.1z"></path>
<path fill="#b0b0b0" d="M838.006 835.119c-9.485 0-18.558 0-27.631 0l-3.712 8.248c39.93 11.364 73.879 24.284 106.412 39.705l-4.136-1.764c22.654-22.298 43.368-46.414 61.96-72.164l1.138-1.657c-37.566 17.489-81.551 27.691-127.919 27.691-2.149 0-4.293-0.022-6.432-0.066l0.32 0.005z"></path>
</svg>
