<!-- Generated by IcoMoon.io -->
<svg version="1.1" xmlns="http://www.w3.org/2000/svg" width="3226" height="1024" viewBox="0 0 3226 1024">
<title></title>
<g id="icomoon-ignore">
</g>
<path fill="#b0b0b0" d="M49.46 1014.779v-522.269h158.441l93.472 356.283 92.634-356.283h158.86v522.269h-97.664v-411.193l-103.113 411.193h-101.436l-102.693-411.193v411.193zM655.142 1014.779v-522.269h105.628v522.269zM808.553 1014.779l180.657-272.452-163.89-251.494h123.232l103.113 155.507 102.693-155.507h125.747l-163.89 251.494 179.818 272.033h-125.747l-116.106-176.884-118.202 177.303zM1465.791 1014.779v-434.246h-152.573v-88.023h414.546v88.023h-153.831v434.246zM1793.991 1014.779v-522.269h386.882v88.023h-280.835v116.106h261.135v88.442h-261.135v141.675h293.41v88.023zM2615.119 822.386l102.274 31.437c-11.679 51.804-39.581 95.804-77.994 127.532l-0.388 0.311c-35.869 26.313-80.885 42.106-129.591 42.106-3.218 0-6.42-0.069-9.605-0.205l0.454 0.015c-2.241 0.080-4.874 0.126-7.518 0.126-64.453 0-122.543-27.242-163.384-70.84l-0.115-0.124c-41.92-47.675-67.5-110.606-67.5-179.513 0-5.416 0.158-10.794 0.47-16.132l-0.034 0.737c-0.351-5.318-0.551-11.529-0.551-17.787 0-70.719 25.567-135.466 67.962-185.503l-0.345 0.418c42.261-44.558 101.892-72.282 167.999-72.282 3.272 0 6.528 0.068 9.767 0.202l-0.464-0.015c2.848-0.134 6.186-0.211 9.542-0.211 56.56 0 108.039 21.752 146.528 57.347l-0.143-0.131c25.508 25.902 44.259 58.53 53.351 94.98l0.301 1.426-104.37 24.73c-5.381-26.080-19.355-48.256-38.774-63.968l-0.208-0.163c-18.398-14.666-41.985-23.533-67.642-23.533-1.271 0-2.537 0.022-3.798 0.065l0.183-0.005c-1.125-0.038-2.448-0.060-3.776-0.060-36.213 0-68.637 16.227-90.395 41.807l-0.14 0.168c-23.298 32.723-37.247 73.51-37.247 117.555 0 6.278 0.283 12.49 0.838 18.623l-0.058-0.79c-0.543 5.802-0.852 12.548-0.852 19.365 0 45.232 13.621 87.283 36.985 122.275l-0.505-0.803c21.449 25.724 53.506 41.974 89.36 41.974 1.299 0 2.592-0.021 3.881-0.064l-0.188 0.005c0.594 0.012 1.294 0.019 1.996 0.019 27.053 0 51.769-10.012 70.642-26.532l-0.124 0.107c21.609-22.201 36.617-50.925 41.797-82.943l0.119-0.888zM2807.931 1014.779v-522.269h106.047v205.806h205.806v-205.806h105.628v522.269h-105.628v-228.44h-205.806v228.44z"></path>
<path fill="#b0b0b0" d="M147.543 0.419c0.124 0 0.272-0.001 0.419-0.001 81.717 0 147.962 66.245 147.962 147.962s-66.245 147.962-147.962 147.962c-81.717 0-147.962-66.245-147.962-147.962v0c0 0 0 0 0-0.001 0-81.57 66.006-147.723 147.52-147.962h0.023z"></path>
<path fill="#b0b0b0" d="M530.652 0c0.124 0 0.271-0.001 0.419-0.001 81.717 0 147.962 66.245 147.962 147.962s-66.245 147.962-147.962 147.962c-81.717 0-147.962-66.245-147.962-147.962 0-0.147 0-0.294 0.001-0.441v0.023c0-81.486 66.057-147.543 147.543-147.543v0z"></path>
<path fill="#b0b0b0" d="M906.636 1.677c81.717 0 147.962 66.245 147.962 147.962s-66.245 147.962-147.962 147.962c-81.717 0-147.962-66.245-147.962-147.962v0c0-81.717 66.245-147.962 147.962-147.962v0z"></path>
</svg>
