<!-- Generated by IcoMoon.io -->
<svg version="1.1" xmlns="http://www.w3.org/2000/svg" width="3072" height="1024" viewBox="0 0 3072 1024">
<title></title>
<g id="icomoon-ignore">
</g>
<path fill="#ec1c24" d="M0 327.969h1466.121v696.035h-1466.121v-696.035z"></path>
<path fill="#ec1c24" d="M1904.994 667.371c43.823-16.905 74.33-58.513 74.33-107.217 0-2.052-0.051-4.092-0.158-6.114l0.009 0.282c0.009-0.461 0.013-1.007 0.013-1.553 0-34.726-14.212-66.15-37.158-88.832l-0.009-0.004c-27.017-24.516-63.117-39.531-102.737-39.531-2.445 0-4.873 0.057-7.292 0.17l0.346-0.013h-265.182v501.833h273.451c2.172 0.111 4.715 0.175 7.27 0.175 39.834 0 76.083-15.279 103.147-40.269l-0.094 0.090c23.637-24.299 38.208-57.451 38.208-93.995 0-1.092-0.013-2.18-0.038-3.268v0.162c0.030-1.020 0.047-2.219 0.047-3.422 0-54.379-34.701-100.689-83.277-118.217l-0.879-0.277h0.004zM1680.533 622.43v-99.887h128.772c32.448 0 54.204 20.258 54.204 50.641s-21.248 49.498-54.204 49.498l-128.772-0.252zM1680.533 720.418h132.463c41.609 0 60.314 27.089 60.314 54.054 0 33.297-22.524 53.171-60.314 53.171h-132.463v-107.226z"></path>
<path fill="#ec1c24" d="M2922.061 424.562l-119.991 195.214-121.519-195.214h-129.792l194.56 296.871v204.962h113.502v-204.962l193.033-296.871h-129.792z"></path>
<path fill="#ec1c24" d="M2401.246 721.813c0 70.515-41.988 112.546-112.354 112.546-70.37 0-112.994-42.031-112.994-112.546v-297.251h-114.522v300.925c0 63.296 19.469 115.204 56.495 151.915 39.701 38.865 97.344 58.615 171.401 58.615s131.951-19.622 171.524-58.359c36.902-36.207 56.499-88.619 56.499-151.919v-301.176h-115.665l-0.384 297.251z"></path>
<path fill="#fff" d="M408.070 593.57h-141.242v-166.097h-167.963v496.013h167.963v-192.811h141.242v192.811h168.6v-496.013h-168.6v166.097z"></path>
<path fill="#fff" d="M894.281 427.469v137.737h150.916v358.272h167.962v-358.272h151.040v-137.737h-469.918z"></path>
<path fill="#fff" d="M660.531 427.349h168.602v496.009h-168.602v-496.009z"></path>
<path fill="#3a3a44" d="M205.303 60.783c0 19.956-6.536 35.249-19.607 45.881s-31.677 15.947-55.815 15.947h-19.869v71.502h-31.241v-191.106h55.031c23.877 0 41.742 4.88 53.593 14.64 11.939 9.76 17.908 24.139 17.908 43.136zM110.012 96.337h16.601c16.034 0 27.799-2.789 35.293-8.366s11.241-14.291 11.241-26.143c0-10.98-3.355-19.172-10.065-24.575s-17.167-8.104-31.372-8.104h-21.699v67.188z"></path>
<path fill="#3a3a44" d="M552.35 98.298c0 31.11-7.799 55.293-23.398 72.547-15.514 17.254-37.517 25.882-66.014 25.882-28.843 0-51.022-8.54-66.533-25.62-15.424-17.167-23.136-41.524-23.136-73.070s7.756-55.772 23.267-72.678c15.599-16.906 37.82-25.359 66.667-25.359 28.407 0 50.368 8.584 65.877 25.751 15.514 17.167 23.27 41.35 23.27 72.547zM406.47 98.298c0 23.529 4.75 41.393 14.248 53.594 9.499 12.113 23.57 18.17 42.22 18.17 18.564 0 32.55-6.013 41.963-18.039 9.498-12.026 14.246-29.934 14.246-53.724 0-23.441-4.706-41.219-14.118-53.332-9.323-12.113-23.266-18.169-41.826-18.169-18.739 0-32.9 6.056-42.484 18.169-9.498 12.113-14.248 29.891-14.248 53.332z"></path>
<path fill="#3a3a44" d="M908.937 194.113h-33.988l-32.418-113.984c-1.391-4.967-3.136-12.113-5.227-21.437-2.091-9.411-3.354-15.948-3.793-19.607-0.87 5.577-2.308 12.81-4.314 21.699-1.916 8.888-3.529 15.511-4.834 19.869l-31.633 113.461h-33.988l-24.704-95.684-25.097-95.423h31.893l27.319 111.37c4.271 17.865 7.322 33.638 9.152 47.319 0.956-7.407 2.394-15.686 4.314-24.836 1.916-9.15 3.661-16.557 5.227-22.222l31.113-111.631h30.98l31.893 112.154c3.051 10.37 6.272 25.882 9.673 46.535 1.306-12.462 4.446-28.322 9.412-47.581l27.187-111.108h31.633l-49.801 191.106z"></path>
<path fill="#3a3a44" d="M1233.237 194.113h-108.105v-191.106h108.105v26.405h-76.864v52.025h72.026v26.143h-72.026v59.999h76.864v26.535z"></path>
<path fill="#3a3a44" d="M1445.12 91.893h21.7c14.554 0 25.097-2.701 31.633-8.104s9.801-13.42 9.801-24.052c0-10.806-3.529-18.562-10.586-23.267s-17.69-7.059-31.893-7.059h-20.655v62.482zM1445.12 117.775v76.338h-31.241v-191.106h53.986c24.661 0 42.918 4.619 54.767 13.856 11.853 9.237 17.779 23.18 17.779 41.829 0 23.79-12.373 40.739-37.124 50.848l53.986 84.573h-35.554l-45.751-76.338h-30.848z"></path>
<path fill="#3a3a44" d="M1832.427 194.113h-108.105v-191.106h108.105v26.405h-76.864v52.025h72.026v26.143h-72.026v59.999h76.864v26.535z"></path>
<path fill="#3a3a44" d="M2168.491 96.73c0 31.546-8.759 55.685-26.274 72.416-17.515 16.644-42.743 24.967-75.686 24.967h-53.461v-191.106h59.085c30.413 0 54.071 8.191 70.976 24.575 16.909 16.383 25.361 39.433 25.361 69.149zM2135.548 97.775c0-45.751-21.393-68.626-64.179-68.626h-27.059v138.689h22.221c46.012 0 69.018-23.354 69.018-70.063z"></path>
<path fill="#3a3a44" d="M2557.619 3.006h56.73c26.321 0 45.316 3.834 56.994 11.503 11.763 7.669 17.647 19.782 17.647 36.339 0 11.154-2.876 20.435-8.627 27.843s-14.033 12.069-24.836 13.987v1.307c13.419 2.527 23.266 7.538 29.542 15.032 6.362 7.407 9.54 17.472 9.54 30.195 0 17.167-6.012 30.631-18.039 40.391-11.938 9.673-28.582 14.51-49.933 14.51h-69.018v-191.106zM2588.86 81.959h30.067c13.069 0 22.613-2.048 28.625-6.144 6.012-4.183 9.020-11.242 9.020-21.176 0-8.976-3.268-15.468-9.805-19.476-6.447-4.009-16.73-6.013-30.848-6.013h-27.059v52.809zM2588.86 107.317v60.521h33.203c13.073 0 22.921-2.484 29.542-7.45 6.707-5.055 10.065-12.985 10.065-23.791 0-9.935-3.401-17.298-10.197-22.091s-17.122-7.19-30.98-7.19h-31.633z"></path>
<path fill="#3a3a44" d="M2927.539 90.194l45.227-87.187h33.988l-63.659 116.991v74.116h-31.373v-73.070l-63.398-118.036h33.988l45.227 87.187z"></path>
</svg>
