<!-- Generated by IcoMoon.io -->
<svg version="1.1" xmlns="http://www.w3.org/2000/svg" width="4861" height="1024" viewBox="0 0 4861 1024">
<title></title>
<g id="icomoon-ignore">
</g>
<path fill="#b0b0b0" d="M926.226 821.299h20.986l69.157 120.19v-120.19h19.078v154.53h-20.986l-69.157-119.713v119.713h-19.078z"></path>
<path fill="#b0b0b0" d="M1179.007 928.134h-78.219c-0.025 0.457-0.040 0.992-0.040 1.53 0 16.331 13.239 29.571 29.571 29.571 0.853 0 1.698-0.036 2.533-0.107l-0.109 0.007c0.737 0.071 1.593 0.111 2.459 0.111 10.531 0 19.663-5.988 24.178-14.744l0.071-0.152h19.078c-5.029 18.527-21.696 31.929-41.493 31.929-2.188 0-4.338-0.164-6.438-0.48l0.236 0.029c-27.252-2.66-48.376-25.453-48.376-53.179s21.124-50.519 48.157-53.162l0.219-0.017c26.341 0 47.694 21.354 47.694 47.694v0c0.308 2.96 0.483 6.395 0.483 9.87 0 0.387-0.002 0.773-0.006 1.158l0.001-0.059zM1160.883 913.826c0.069-0.728 0.109-1.573 0.109-2.428 0-15.014-12.172-27.186-27.186-27.186-0.542 0-1.079 0.016-1.613 0.047l0.074-0.003c-0.428-0.022-0.93-0.034-1.434-0.034-16.439 0-29.795 13.202-30.044 29.581v0.023z"></path>
<path fill="#b0b0b0" d="M1206.193 873.762h20.509l24.801 73.926 25.755-73.926h17.17l25.755 73.926 24.801-73.926h20.986l-37.679 100.635h-16.216l-26.232-77.742-25.755 79.173h-16.216z"></path>
<path fill="#b0b0b0" d="M1555.316 924.319l31.001 50.079h-22.893l-29.571-47.694h-31.955v47.694h-20.032v-153.099h55.326c0.451-0.015 0.982-0.023 1.514-0.023 27.658 0 50.079 22.421 50.079 50.079 0 1.015-0.030 2.022-0.090 3.022l0.007-0.138c0.030 0.65 0.046 1.411 0.046 2.177 0 21.867-13.753 40.521-33.081 47.786l-0.352 0.116zM1501.898 909.056h33.863c17.65-2.122 31.198-17.007 31.198-35.055s-13.548-32.934-31.030-35.039l-0.168-0.017h-33.863z"></path>
<path fill="#b0b0b0" d="M1721.293 928.134h-79.65c-0.044 0.602-0.070 1.304-0.070 2.011 0 16.068 13.026 29.094 29.094 29.094 0.864 0 1.719-0.038 2.564-0.111l-0.11 0.008c0.822 0.090 1.775 0.141 2.739 0.141 10.46 0 19.516-6.013 23.899-14.772l0.070-0.154h19.078c-5.029 18.527-21.696 31.929-41.493 31.929-2.188 0-4.338-0.164-6.438-0.48l0.236 0.029c-27.252-2.66-48.376-25.453-48.376-53.179s21.124-50.519 48.157-53.162l0.219-0.017c26.341 0 47.694 21.354 47.694 47.694v0c0.873 2.942 1.703 6.645 2.312 10.423l0.073 0.547zM1702.692 913.826c0.069-0.728 0.109-1.573 0.109-2.428 0-15.014-12.172-27.186-27.186-27.186-0.542 0-1.079 0.016-1.613 0.047l0.074-0.003c-0.427-0.022-0.928-0.035-1.431-0.035-16.331 0-29.571 13.239-29.571 29.571 0 0.012 0 0.024 0 0.037v-0.002z"></path>
<path fill="#b0b0b0" d="M1818.59 957.705v18.124c-2.504 0.288-5.406 0.452-8.347 0.452s-5.842-0.164-8.697-0.484l0.351 0.032c-11.924 0-31.001 0-31.001-34.817v-51.51h-18.124v-15.739h18.124v-31.955h19.078v31.955h25.755v15.739h-25.755v47.694c0 19.555 6.677 21.939 16.216 21.939z"></path>
<path fill="#b0b0b0" d="M1850.545 924.319c-0.22-1.719-0.345-3.707-0.345-5.725 0-26.341 21.354-47.694 47.694-47.694 0.121 0 0.242 0 0.363 0.001h-0.019c0.321-0.009 0.698-0.015 1.077-0.015 14.87 0 27.825 8.199 34.591 20.322l0.103 0.201v-17.647h18.601v102.066h-18.601v-17.647c-7.339 12.358-20.616 20.511-35.798 20.511-0.158 0-0.316-0.001-0.474-0.003h0.024c-26.338-0.004-47.687-21.356-47.687-47.694 0-2.355 0.171-4.671 0.501-6.935l-0.031 0.258zM1937.349 924.319c0.054-0.715 0.084-1.549 0.084-2.389 0-18.702-15.161-33.863-33.863-33.863-0.197 0-0.394 0.002-0.591 0.005h0.030c-18.153 2.153-32.097 17.453-32.097 36.009s13.944 33.856 31.925 35.993l0.171 0.017c0.158 0.003 0.344 0.004 0.531 0.004 18.702 0 33.863-15.161 33.863-33.863 0-0.673-0.020-1.341-0.058-2.003l0.004 0.092z"></path>
<path fill="#b0b0b0" d="M2002.69 840.853c0-0.002 0-0.005 0-0.007 0-8.429 6.833-15.262 15.262-15.262 0.168 0 0.335 0.003 0.501 0.008l-0.024-0.001c8.429 0 15.262 6.833 15.262 15.262s-6.833 15.262-15.262 15.262v0c-0.142 0.005-0.309 0.007-0.477 0.007-8.429 0-15.262-6.833-15.262-15.262 0-0.003 0-0.005 0-0.008v0zM2008.891 873.762h19.078v102.066h-19.078z"></path>
<path fill="#b0b0b0" d="M2081.386 821.299h19.078v154.53h-19.078z"></path>
<path fill="#b0b0b0" d="M2231.624 821.299h19.078l52.941 124.959 52.464-124.959h19.078v154.53h-19.078v-111.605l-46.741 111.605h-15.262l-47.694-112.559v112.559h-19.078z"></path>
<path fill="#b0b0b0" d="M2421.925 924.319c-0.228-1.751-0.358-3.776-0.358-5.832 0-26.341 21.354-47.694 47.694-47.694 1.133 0 2.256 0.039 3.37 0.117l-0.15-0.008c0.348-0.011 0.757-0.018 1.167-0.018 14.71 0 27.501 8.222 34.026 20.321l0.101 0.205v-17.647h19.078v102.066h-19.078v-17.647c-6.989 12.331-20.024 20.517-34.971 20.517-0.281 0-0.562-0.003-0.841-0.009l0.042 0.001c-0.857 0.055-1.858 0.086-2.867 0.086-26.341 0-47.694-21.354-47.694-47.694 0-2.386 0.175-4.731 0.513-7.023l-0.031 0.26zM2508.728 924.319c0-18.702-15.161-33.863-33.863-33.863s-33.863 15.161-33.863 33.863v0c0 18.702 15.161 33.863 33.863 33.863s33.863-15.161 33.863-33.863v0z"></path>
<path fill="#b0b0b0" d="M2580.27 873.762h19.078v22.893c2.759-14.084 14.908-24.596 29.549-24.801h9.561v17.647h-9.539c-20.032 0-29.571 18.124-29.571 40.54v45.787h-19.078z"></path>
<path fill="#b0b0b0" d="M2719.538 922.411l47.694 51.987h-25.278l-43.879-47.694v47.694h-19.078v-153.099h19.078v98.251l44.833-47.694h24.324z"></path>
<path fill="#b0b0b0" d="M2892.192 928.134h-78.219c-0.044 0.602-0.070 1.304-0.070 2.011 0 16.068 13.026 29.094 29.094 29.094 0.864 0 1.719-0.038 2.564-0.111l-0.11 0.008c0.822 0.090 1.775 0.141 2.739 0.141 10.46 0 19.516-6.013 23.899-14.772l0.070-0.154h19.078c-5.029 18.527-21.696 31.929-41.493 31.929-2.188 0-4.338-0.164-6.438-0.48l0.236 0.029c-27.252-2.66-48.376-25.453-48.376-53.179s21.124-50.519 48.157-53.162l0.219-0.017c26.341 0 47.694 21.354 47.694 47.694v0c0.493 3.194 0.835 6.983 0.951 10.828l0.003 0.141zM2874.068 913.826c0.071-0.737 0.112-1.594 0.112-2.46 0-15.014-12.172-27.186-27.186-27.186-0.711 0-1.415 0.027-2.112 0.081l0.092-0.006c-0.427-0.022-0.928-0.035-1.431-0.035-16.331 0-29.571 13.239-29.571 29.571 0 0.012 0 0.024 0 0.037v-0.002z"></path>
<path fill="#b0b0b0" d="M2989.966 957.705v18.124c-2.575 0.285-5.561 0.448-8.585 0.448s-6.010-0.163-8.949-0.48l0.364 0.032c-11.924 0-31.001 0-31.001-34.817v-51.51h-18.124v-15.739h18.124v-31.955h19.078v31.955h25.755v15.739h-25.755v47.694c0 19.555 6.677 21.939 16.216 21.939z"></path>
<path fill="#b0b0b0" d="M3027.644 840.853c-0.005-0.142-0.007-0.309-0.007-0.477 0-8.693 7.047-15.739 15.739-15.739s15.739 7.047 15.739 15.739c0 8.69-7.043 15.735-15.732 15.739v0c-0.288 0.020-0.624 0.031-0.963 0.031-8.166 0-14.785-6.62-14.785-14.785 0-0.179 0.003-0.357 0.009-0.534l-0.001 0.026zM3033.367 873.762h19.078v102.066h-19.078z"></path>
<path fill="#b0b0b0" d="M3106.34 873.762h19.078v18.601c5.642-12.786 18.209-21.548 32.822-21.548 0.87 0 1.733 0.031 2.587 0.092l-0.115-0.007c24.801 0 37.679 14.308 37.679 41.494v63.434h-19.078v-53.895c0-22.416-7.631-32.909-25.278-32.909s-28.617 12.878-28.617 33.386v53.418h-19.078z"></path>
<path fill="#b0b0b0" d="M3347.197 873.762v97.774c0.071 1.015 0.112 2.2 0.112 3.394 0 14.831-6.268 28.198-16.3 37.597l-0.028 0.026c-9.184 7.178-20.895 11.51-33.617 11.51-0.925 0-1.845-0.023-2.759-0.068l0.129 0.005c-0.245 0.004-0.534 0.006-0.824 0.006-12.923 0-24.885-4.112-34.651-11.098l0.18 0.123c-9.029-6.278-14.946-16.486-15.261-28.092l-0.001-0.048h20.032c0 13.354 11.924 21.939 30.524 21.939 1.254 0.188 2.701 0.296 4.174 0.296 16.331 0 29.571-13.239 29.571-29.571 0-1.62-0.13-3.209-0.381-4.758l0.023 0.17v-16.216c-6.869 12.325-19.824 20.523-34.694 20.523-0.379 0-0.756-0.005-1.132-0.016l0.055 0.001c-0.086 0.001-0.188 0.001-0.29 0.001-26.341 0-47.694-21.354-47.694-47.694 0-1.849 0.105-3.673 0.31-5.467l-0.020 0.219c-0.052-0.855-0.081-1.855-0.081-2.862 0-27.921 22.635-50.556 50.556-50.556 0.028 0 0.057 0 0.085 0h-0.004c0.518-0.025 1.124-0.040 1.734-0.040 14.557 0 27.186 8.255 33.461 20.339l0.099 0.209v-17.647zM3329.073 924.319c-1.039-17.863-15.778-31.955-33.809-31.955-18.702 0-33.863 15.161-33.863 33.863 0 18.683 15.13 33.832 33.806 33.863h0.003c0.016 0 0.035 0 0.054 0 18.702 0 33.863-15.161 33.863-33.863 0-0.671-0.020-1.338-0.058-1.999l0.004 0.091z"></path>
<path fill="#b0b0b0" d="M0 154.053h128.298v34.817c0.276 3.71 0.433 8.037 0.433 12.401s-0.157 8.69-0.466 12.975l0.033-0.575c24.633-41.465 69.19-68.821 120.136-68.821 2.2 0 4.387 0.051 6.562 0.152l-0.308-0.011c80.127 0 143.083 36.725 143.083 148.807v257.073h-133.068v-232.749c0-36.725-14.785-52.464-43.879-52.464-59.618 0-86.327 47.694-86.327 105.882v179.331h-133.544z"></path>
<path fill="#b0b0b0" d="M666.769 144.991c2.325-0.11 5.051-0.173 7.791-0.173 97.198 0 175.993 78.795 175.993 175.993 0 5.266-0.231 10.477-0.684 15.625l0.047-0.667c-0.267 14.938-1.299 29.318-3.062 43.471l0.201-1.977h-250.396c7.301 42.261 43.686 74 87.483 74 1.271 0 2.535-0.027 3.793-0.080l-0.18 0.006c41.406-2.729 78.937-17.352 109.753-40.445l-0.533 0.382 47.694 93.004c-45.264 36.266-103.374 58.201-166.607 58.201-0.952 0-1.903-0.005-2.853-0.015l0.145 0.001c-3.569 0.221-7.741 0.346-11.942 0.346-113.793 0-206.040-92.247-206.040-206.040 0-0.96 0.007-1.919 0.020-2.876l-0.002 0.145c-0.226-3.536-0.355-7.667-0.355-11.829 0-109.051 88.404-197.455 197.455-197.455 4.32 0 8.607 0.139 12.858 0.412l-0.58-0.030zM718.279 301.906c0.084-1.142 0.132-2.474 0.132-3.817 0-30.434-24.574-55.129-54.962-55.324h-0.019c-33.424 0.6-60.684 26.207-63.889 58.872l-0.021 0.269z"></path>
<path fill="#b0b0b0" d="M3593.777 144.991c4.283-0.309 9.279-0.486 14.317-0.486 116.023 0 210.203 93.517 211.277 209.285l0.001 0.102c0 124.006-100.158 206.517-225.118 206.517-5.168 0.456-11.181 0.715-17.254 0.715-115.11 0-208.425-93.315-208.425-208.425s93.315-208.425 208.425-208.425c6.073 0 12.086 0.26 18.028 0.769l-0.774-0.053zM3593.777 449.282c0.196 0.002 0.428 0.002 0.66 0.002 49.521 0 89.666-40.145 89.666-89.666 0-2.015-0.066-4.014-0.197-5.995l0.014 0.269c0.304-2.785 0.477-6.015 0.477-9.285 0-50.048-40.572-90.619-90.619-90.619s-90.619 40.572-90.619 90.619c0 3.27 0.173 6.5 0.511 9.681l-0.034-0.396c-0.181 2.143-0.285 4.638-0.285 7.157 0 49.784 40.358 90.143 90.143 90.143 0.268 0 0.535-0.001 0.803-0.003h-0.041z"></path>
<path fill="#b0b0b0" d="M3886.144 154.053h128.298v67.249c0.276 3.71 0.433 8.037 0.433 12.401s-0.157 8.69-0.466 12.975l0.033-0.575c16.564-55.918 66.45-96.426 126.135-98.72l0.256-0.008c2.288-0.235 4.944-0.369 7.631-0.369s5.343 0.134 7.961 0.395l-0.33-0.027v131.16c-6.843-1.575-14.7-2.477-22.768-2.477-1.554 0-3.1 0.033-4.637 0.1l0.219-0.008c-73.926 0-109.22 47.694-109.22 119.236v154.053h-133.544z"></path>
<path fill="#b0b0b0" d="M4213.805 0h133.068v386.802c0 37.679 7.154 51.033 37.202 51.033 2.427 0.195 5.255 0.307 8.108 0.307s5.681-0.111 8.478-0.33l-0.37 0.023v115.421c-11.935 1.435-25.848 2.299-39.946 2.384l-0.118 0.001c-71.065 0-146.422-16.693-146.422-150.238z"></path>
<path fill="#b0b0b0" d="M4623.501 144.991c3.771-0.345 8.156-0.542 12.587-0.542 34.7 0 66.58 12.070 91.672 32.241l-0.284-0.221c-0.157-2.637-0.247-5.72-0.247-8.823s0.090-6.187 0.266-9.247l-0.020 0.423v-158.823h133.544v550.871h-124.959v-26.232c0-12.401 0-22.416 0-22.416v0c-24.277 35.374-64.494 58.277-110.061 58.277-1.717 0-3.427-0.033-5.128-0.097l0.245 0.007c-107.789 0-178.377-84.896-178.377-208.425s75.357-206.994 180.762-206.994zM4654.502 450.236c40.063 0 77.742-29.571 77.742-98.251 0-47.694-25.278-95.389-77.742-95.389-41.494 0-77.742 33.863-77.742 95.389s31.478 99.204 77.742 99.204z"></path>
<path fill="#b0b0b0" d="M2231.147 212.717c-24.719-32.331-62.655-53.478-105.593-55.316l-0.289-0.010c-0.896-0.021-1.951-0.033-3.009-0.033-41.595 0-78.886 18.424-104.159 47.556l-0.145 0.171-177.423 205.086-160.253-200.794c-25.003-32.412-63.853-53.086-107.532-53.086-42.613 0-80.631 19.678-105.461 50.443l-0.202 0.258-170.269 203.178-210.333-254.688c-15.065-15.844-36.3-25.699-59.837-25.699-45.57 0-82.511 36.942-82.511 82.511 0 18.061 5.803 34.768 15.647 48.355l-0.166-0.24 230.841 279.49c25.168 30.855 62.891 50.642 105.261 51.508l0.144 0.002c42.551-0.467 80.461-19.946 105.697-50.328l0.184-0.228 169.792-202.701 160.253 199.84c24.995 32.603 63.959 53.415 107.783 53.415 41.679 0 78.962-18.825 103.809-48.436l0.171-0.209 176.47-204.61 111.605-124.959z"></path>
<path fill="#b0b0b0" d="M3280.902 150.238c-14.605-13.336-34.126-21.505-55.555-21.505-24.043 0-45.684 10.284-60.765 26.692l-0.054 0.059-238.472 257.55-146.899-196.501c-24.962-34.587-65.157-56.835-110.548-56.835-40.904 0-77.588 18.067-102.507 46.657l-0.139 0.163-183.624 206.517-152.145-196.501-111.605 124.959 153.099 197.455c25.045 33.47 64.589 54.902 109.139 54.902 40.892 0 77.567-18.057 102.486-46.632l0.138-0.162 183.147-206.040 146.899 196.024c23.957 32.572 61.204 54.164 103.586 56.738l0.388 0.019c1.77 0.082 3.846 0.129 5.933 0.129 40.389 0 76.693-17.493 101.748-45.315l0.109-0.123 258.504-281.874c14.003-14.756 22.615-34.747 22.615-56.75 0-23.429-9.765-44.577-25.447-59.597l-0.030-0.028z"></path>
</svg>
